<svg xmlns="http://www.w3.org/2000/svg" viewBox="0 0 403.8 107.4"><title>logo</title><polygon points="53.7 35.7 31.8 74.9 10 35.7 0 35.7 27.4 84.6 27.4 106.6 36.3 106.6 36.3 84.6 63.6 35.7 53.7 35.7"/><rect x="137.4" y="35.7" width="8.9" height="70.92"/><path d="M245.9,51.2A27.1,27.1,0,0,0,231,55.6a26.1,26.1,0,0,0-8.1,8.1,28.4,28.4,0,0,0-8.1-8.1,27.4,27.4,0,0,0-15-4.4A26.8,26.8,0,0,0,180.7,59a26,26,0,0,0-8.2,19v44.9h8.7V78a18.7,18.7,0,0,1,31.7-12.8A17.6,17.6,0,0,1,218.5,78v44.9h8.7V78a18.7,18.7,0,0,1,37.3,0v44.9h8.7V78.1A26.6,26.6,0,0,0,265.1,59,27,27,0,0,0,245.9,51.2Z" transform="translate(-19.9 -16.2)"/><rect x="259.6" y="35.7" width="8.9" height="70.92"/><polygon points="324.8 35.7 302.9 74.9 281.1 35.7 271.1 35.7 298.6 84.6 298.5 106.6 307.4 106.6 307.4 84.6 334.7 35.7 324.8 35.7"/><path d="M413,61.6a36.2,36.2,0,0,0-51.4,0,35,35,0,0,0-10.7,25.7A35.1,35.1,0,0,0,361.6,113a36.2,36.2,0,0,0,51.4,0l1.8-1.9v11.8h8.8V87.3A34.5,34.5,0,0,0,413,61.6Zm-25.7,53.2a26.3,26.3,0,0,1-19.5-8,26.6,26.6,0,0,1-8-19.5,27.3,27.3,0,0,1,27.5-27.5,26.6,26.6,0,0,1,19.5,8,26.3,26.3,0,0,1,8,19.5,27.3,27.3,0,0,1-27.5,27.5Z" transform="translate(-19.9 -16.2)"/><path d="M135.2,97.2a22.9,22.9,0,0,0,2.6-13.8c-.7-6.5-5-10.8-11.2-11.2a29.4,29.4,0,0,0-5.1.5c-1.1.1-1.3,0-1.3-1.1s.1-2.7.3-4.1a99.1,99.1,0,0,1,4.7-21.6,104.3,104.3,0,0,1,4.5-11.7c1.9-3.8,4.3-7.3,6.5-10.8a5.3,5.3,0,0,1,4.4-2.6,8.3,8.3,0,0,0,2.2-.3,1.3,1.3,0,0,0,.9-.7,2.6,2.6,0,0,0-.3-3,1.7,1.7,0,0,0-2.4-.2l-2.3,1.1a4.3,4.3,0,0,1-1.8.6,38.8,38.8,0,0,0-6.1,1l-.8,2.8,5-1.3,1,.2a2.5,2.5,0,0,1-.4.9,57.7,57.7,0,0,0-7.1,10.6c-1,2-2.2,3.9-3.1,5.9s-2.6,6-3.6,9-2.6,8.2-3.6,12.4-1.2,7-1.7,10.6c-.1.8-.3,1.1-1.2.7a22.9,22.9,0,0,0-2.8-.9c-2.5-.7-5.1-1.1-7.6.3a14.6,14.6,0,0,0-7.2,8.4,26.1,26.1,0,0,0-.4,14.4c1.4,5.5,4.2,10,9.1,13.1a21.6,21.6,0,0,0,8.3,2.9c4.2.7,8-.8,11.6-2.6S133,101.2,135.2,97.2Zm-3.9-.7a6.7,6.7,0,0,1-1.5.6,4.7,4.7,0,0,1-.2-1.6,57.3,57.3,0,0,0,1.4-5.6,10.4,10.4,0,0,0-1.5-8.2,15.9,15.9,0,0,0-3-2.7c-.8-.6-1.8-1-1.5-2.3s1.6-1.1,2.6-1.1a6.7,6.7,0,0,1,6.5,5,15.3,15.3,0,0,1-1.4,14.2C132.2,95.4,131.8,96,131.3,96.5Z" transform="translate(-19.9 -16.2)" style="fill:#c1272d"/><path d="M127,52a19.1,19.1,0,0,0-2.3,6.6,37.3,37.3,0,0,0-.4,4.7c0,.6,0,1.5.4,1.6h.4c2.3-.3,2.8.1,5.1.2,8.7.6,14.7,6.7,15.8,15.8a32.9,32.9,0,0,1-3.7,19.2c-3,5.6-6.8,10.4-12.5,13.3s-10.4,4.8-16.3,3.8a30.4,30.4,0,0,1-11.6-4.1c-6.8-4.4-10.8-10.7-12.7-18.4s-1.7-13.5.6-20.1a20.4,20.4,0,0,1,10-11.9c3.5-1.8,7.1-1.4,10.8-.4a30.4,30.4,0,0,1,3.9,1.4c1.1.4,1.5,0,1.6-1.1.6-3.9,1-7.8,1.7-11.7h-1.6A36.5,36.5,0,0,0,79.8,87.3a36.4,36.4,0,0,0,36.4,36.4,36.4,36.4,0,0,0,36.3-36.4,34.5,34.5,0,0,0-10.6-25.7C136.4,56,133,54,127,52Z" transform="translate(-19.9 -16.2)"/><path d="M138.8,98.3a15.7,15.7,0,0,0,2-2.5,21.5,21.5,0,0,0,2-19.8c-1.5-4.2-4.4-7-9.1-7.1h-1.5a12.2,12.2,0,0,1,1.7,1.5,21.4,21.4,0,0,1,6.5,15.8,21.6,21.6,0,0,1-3.7,12.5V99A6.5,6.5,0,0,0,138.8,98.3Z" transform="translate(-19.9 -16.2)"/></svg>